<svg version="1.1" xmlns="http://www.w3.org/2000/svg" xmlns:xlink="http://www.w3.org/1999/xlink" x="0px" y="0px" viewBox="-47 170.9 500 500" style="enable-background:new -47 170.9 500 500;" xml:space="preserve">

	<path id="background" fill="#FFC83B" d="M453.1,238.5c0-37.3-30.2-67.6-67.6-67.6H20.6c-37.3,0-67.7,30.2-67.7,67.6v364.8 c0,37.3,30.2,67.6,67.6,67.6h364.8c37.3,0,67.6-30.2,67.6-67.6V238.5H453.1z"/>

	<g id="icon" fill="#FFFFFF">
		
  <path id="pallete" class="st4" d="M381.3,257.3c-1.4-1.4-3.4-2-5.3-1.5l-25.7,5.8c-1.7,0.4-10.5,2.7-14.7,7.1 c-6.7,6.8-8.5,16.5-5.8,25.1c-1.6-0.4-3.4-0.1-4.8,1l-40.8,32.7c-1.3,1-2,2.5-2.1,4.2c0,0.1,0,0.2,0,0.4c-0.1,0-0.1,0-0.2,0 c-1.6,0-3.1,0.7-4.1,1.9l-24.9,27c-8.6,3.4-16.3,8.4-22.8,14.9c-4.5,4.5-10.6,7-17,7c-6.4,0-12.4-2.5-17-7 c-4.9-4.9-7.4-11.6-7-18.5c0-0.5,0-1-0.1-1.4v0c0-0.8,0.1-1.7,0.1-2.5c0-0.2,0-0.4,0-0.6c0-0.2,0-0.3,0-0.5 c-0.6-17.2-7.6-33.3-19.7-45.4C156.7,294,139.7,287,121.6,287c-14.1,0-27.6,4.3-39.1,12.4c-3.4,2.4-6.3,4.8-8.9,7.4 c-0.9,0.9-1.8,1.9-2.6,2.9l-0.3,0.4c-0.2,0.1-0.3,0.3-0.5,0.4c-63,63-63,165.4,0,228.4c30.5,30.5,71.1,47.3,114.2,47.3 c43.2,0,83.7-16.8,114.2-47.3c31.2-31.2,48-72.6,47.3-116.7c0-0.6-0.1-1.1-0.3-1.7c-0.7-17-7.7-32.9-19.7-44.9 c-6.2-6.2-13.6-11.1-21.8-14.5l0.6-0.5c1.2-1.1,1.8-2.5,1.9-4.1c0,0,0-0.1,0-0.1c0,0,0,0,0,0c0.1,0,0.2,0,0.3,0 c1.6-0.1,3.1-0.9,4.2-2.1l32.7-40.8c1-1.2,1.3-2.7,1.2-4.2c2.5,0.9,5.2,1.4,7.9,1.4c6.5,0,12.7-2.6,17.3-7.2 c3.2-3.3,7.5-17,12.7-40.8C383.3,260.7,382.7,258.7,381.3,257.3z M193.9,441.9l66.8-72.6h0l21.6-23.5l10.3,10.3l-96,88.4l-3.2,0.6 L193.9,441.9z M68.6,453.9c-4.8-4.8-7.5-11.2-7.5-18c0-6.8,2.7-13.2,7.5-18c4.8-4.8,11.2-7.5,18-7.5c6.8,0,13.2,2.6,18,7.5 c9.9,9.9,9.9,26.1,0,36c-4.8,4.8-11.2,7.5-18,7.5C79.8,461.4,73.4,458.8,68.6,453.9z M141.9,519.1c-4.8,4.8-11.2,7.5-18,7.5 c-6.8,0-13.2-2.6-18-7.5c-4.8-4.8-7.5-11.2-7.5-18c0-6.8,2.7-13.2,7.5-18c4.8-4.8,11.2-7.4,18-7.4c6.8,0,13.2,2.6,18,7.4 C151.8,493,151.8,509.2,141.9,519.1z M153,366.8c-4.3,4.3-10.2,6.6-16.6,6.6c-8.1,0-16.4-3.6-22.8-10 c-11.8-11.8-13.3-29.5-3.4-39.4c4.3-4.3,10.2-6.6,16.6-6.6c8.1,0,16.4,3.6,22.8,10c5.6,5.6,9,12.6,9.8,19.8 C160.3,354.8,158,361.8,153,366.8z M205.1,554.4c-4.8,4.8-11.2,7.5-18,7.5c-6.8,0-13.2-2.6-18-7.5c-4.8-4.8-7.5-11.2-7.5-18 c0-6.8,2.7-13.2,7.5-18c4.8-4.8,11.2-7.5,18-7.5c6.8,0,13.2,2.7,18,7.5C215.1,528.3,215.1,544.5,205.1,554.4z M268.9,518.6 c-4.8,4.8-11.2,7.5-18,7.5c-6.8,0-13.2-2.6-18-7.5c-4.8-4.8-7.5-11.2-7.5-18c0-6.8,2.6-13.2,7.5-18c4.8-4.8,11.2-7.5,18-7.5 c6.8,0,13.2,2.7,18,7.5c4.8,4.8,7.5,11.2,7.5,18C276.3,507.4,273.7,513.8,268.9,518.6z M304.9,418.7c4.8,4.8,7.5,11.2,7.5,18 c0,6.8-2.7,13.2-7.5,18c-4.8,4.8-11.2,7.5-18,7.5c-6.8,0-13.2-2.7-18-7.5c-4.8-4.8-7.5-11.2-7.5-18c0-6.8,2.6-13.2,7.5-18 c4.8-4.8,11.2-7.5,18-7.5C293.6,411.2,300,413.9,304.9,418.7z M306.1,342l-9.7-9.7l31.7-25.4l3.4,3.4L306.1,342z M362,295.3 c-4.9,4.9-13.3,4.9-18.2,0c-5.1-5.1-5.1-13.5,0-18.7c1.3-1.3,5.9-3.1,9.2-4l16.7-3.7C366.7,281.3,363.3,293.2,362,295.3z"/>

	</g>
	
</svg>