<svg version="1.1" xmlns="http://www.w3.org/2000/svg" xmlns:xlink="http://www.w3.org/1999/xlink" x="0px" y="0px" viewBox="-47 170.9 500 500" style="enable-background:new -47 170.9 500 500;" xml:space="preserve">

	<g id="icon-mask" fill="#FFFFFF">
				
    <path id="pallete" d="M450.7,193.6c-1.9-1.9-4.8-2.7-7.4-2.1l-35.7,8c-2.4,0.6-14.6,3.8-20.5,9.8 c-9.3,9.4-11.9,22.9-8.1,34.8c-2.2-0.5-4.7-0.1-6.6,1.4l-56.6,45.4c-1.8,1.4-2.8,3.5-3,5.8c0,0.2,0.1,0.3,0.1,0.5 c-0.1,0-0.2-0.1-0.2-0.1c-2.2,0.1-4.2,1-5.7,2.6l-34.5,37.5c-12,4.8-22.6,11.6-31.7,20.7c-6.3,6.3-14.7,9.8-23.6,9.8 c-8.9,0-17.3-3.5-23.6-9.8c-6.8-6.8-10.3-16.1-9.7-25.7c0-0.7,0-1.3-0.2-2v0c0.1-1.2,0.1-2.3,0.1-3.4c0-0.3,0-0.6,0-0.8 c0-0.2,0-0.5-0.1-0.7c-0.9-23.9-10.6-46.2-27.4-63c-17.7-17.7-41.3-27.5-66.4-27.5c-19.6,0-38.3,5.9-54.3,17.2 c-4.7,3.4-8.8,6.7-12.3,10.3c-1.3,1.3-2.5,2.6-3.7,4l-0.4,0.5c-0.2,0.2-0.4,0.4-0.7,0.6c-87.5,87.5-87.5,229.8,0,317.2 c42.4,42.4,98.7,65.7,158.7,65.7c59.9,0,116.3-23.3,158.7-65.7c43.3-43.3,66.6-100.8,65.7-162c0-0.8-0.2-1.6-0.5-2.4 c-1-23.6-10.7-45.7-27.4-62.3c-8.6-8.7-18.9-15.4-30.2-20.1l0.8-0.7c1.6-1.5,2.5-3.5,2.6-5.7c0-0.1,0-0.1,0-0.2c0,0,0,0,0,0 c0.2,0,0.3,0,0.4,0c2.3-0.1,4.4-1.2,5.8-3l45.4-56.6c1.4-1.7,1.9-3.8,1.7-5.9c3.5,1.2,7.2,2,11,2c9.1,0,17.6-3.5,24-10 c4.4-4.5,10.4-23.6,17.7-56.7C453.4,198.4,452.6,195.6,450.7,193.6z M190.3,450.1L283,349.3h0l30-32.6l14.3,14.3L194,453.7 l-4.5,0.8L190.3,450.1z M16.3,466.8c-6.7-6.7-10.4-15.6-10.4-25c0-9.5,3.7-18.4,10.4-25.1c6.7-6.7,15.6-10.4,25-10.4 c9.5,0,18.3,3.7,25,10.4c13.8,13.8,13.8,36.3,0,50.1c-6.7,6.7-15.6,10.4-25,10.4C31.9,477.2,23,473.5,16.3,466.8z M118.1,557.3 c-6.7,6.7-15.6,10.4-25,10.4c-9.5,0-18.3-3.7-25-10.4c-6.7-6.7-10.4-15.6-10.4-25c0-9.4,3.7-18.3,10.4-25 c6.7-6.7,15.6-10.3,25-10.3c9.4,0,18.3,3.7,25,10.3C131.9,521,131.9,543.5,118.1,557.3z M133.6,345.7c-5.9,5.9-14.1,9.2-23.1,9.2 c-11.3,0-22.8-5-31.6-13.8c-16.4-16.4-18.5-41-4.7-54.8c5.9-5.9,14.1-9.2,23.1-9.2c11.3,0,22.8,5,31.6,13.8 c7.7,7.7,12.6,17.5,13.6,27.5C143.7,329.1,140.5,338.8,133.6,345.7z M206,606.4c-6.7,6.7-15.6,10.4-25,10.4 c-9.4,0-18.3-3.7-25-10.4c-6.7-6.7-10.4-15.6-10.4-25s3.7-18.3,10.4-25c6.7-6.7,15.6-10.4,25-10.4c9.5,0,18.3,3.7,25,10.4 C219.8,570.1,219.8,592.6,206,606.4z M294.5,556.7c-6.7,6.7-15.6,10.4-25,10.4c-9.5,0-18.3-3.7-25-10.4c-6.7-6.7-10.4-15.5-10.4-25 c0-9.5,3.7-18.4,10.4-25c6.7-6.7,15.6-10.4,25-10.4c9.5,0,18.4,3.7,25,10.4c6.7,6.7,10.4,15.5,10.4,25 C304.9,541.1,301.2,550,294.5,556.7z M344.5,417.8c6.7,6.7,10.4,15.6,10.4,25c0,9.5-3.7,18.3-10.4,25c-6.7,6.7-15.6,10.4-25,10.4 c-9.5,0-18.3-3.7-25-10.4c-6.7-6.7-10.4-15.6-10.4-25c0-9.5,3.7-18.4,10.4-25c6.7-6.7,15.6-10.4,25-10.4 C328.9,407.4,337.8,411.1,344.5,417.8z M346.2,311.3l-13.5-13.5l44.1-35.3l4.7,4.7L346.2,311.3z M423.8,246.5 c-6.8,6.9-18.5,6.9-25.3,0c-7-7.1-7-18.8,0-25.9c1.8-1.8,8.2-4.4,12.8-5.5l23.2-5.2C430.3,226.9,425.7,243.6,423.8,246.5z"/>

	</g>

</svg>